<?xml version="1.0" encoding="UTF-8" standalone="no"?>
<!DOCTYPE svg PUBLIC "-//W3C//DTD SVG 1.1//EN" "http://www.w3.org/Graphics/SVG/1.1/DTD/svg11.dtd">
<svg width="100%" height="100%" viewBox="0 0 585 252" version="1.1" xmlns="http://www.w3.org/2000/svg" xmlns:xlink="http://www.w3.org/1999/xlink" xml:space="preserve" xmlns:serif="http://www.serif.com/" style="fill-rule:evenodd;clip-rule:evenodd;stroke-linejoin:round;stroke-miterlimit:2;">
    <g id="Artboard1" transform="matrix(0.491597,0,0,0.657963,-86.521,-125.671)">
        <rect x="176" y="191" width="1190" height="383" style="fill:none;"/>
        <g transform="matrix(2.03419,0,0,1.51984,123.68,96.1896)">
            <clipPath id="_clip1">
                <path d="M125.955,149.959C132.955,149.959 137.063,151.887 138.281,155.742C138.889,157.669 139.194,160.205 139.194,163.35C139.194,166.495 138.864,169.006 138.204,170.882C137.545,172.759 136.505,174.103 135.085,174.915C132.955,176.132 129.861,176.741 125.803,176.741L116.064,176.132L116.064,216.913C116.064,220.768 115.582,223.634 114.618,225.511C113.654,227.388 112.184,228.63 110.205,229.239C108.227,229.848 105.666,230.152 102.521,230.152C99.376,230.152 96.865,229.822 94.988,229.163C93.112,228.504 91.768,227.438 90.956,225.968C90.144,224.497 89.663,223.152 89.51,221.935C89.358,220.718 89.282,218.942 89.282,216.609L89.282,176.284L83.804,176.284C81.166,176.081 79.29,175.473 78.174,174.458C76.246,172.531 75.283,168.828 75.283,163.35C75.283,155.031 78.275,150.872 84.261,150.872L89.282,150.872L89.282,142.807C89.282,134.996 92.072,127.92 97.651,121.58C103.231,115.239 111.296,112.069 121.846,112.069C124.18,112.069 125.929,112.145 127.096,112.297C128.263,112.449 129.607,112.931 131.129,113.743C133.868,115.062 135.237,118.967 135.237,125.46C135.237,130.329 134.375,133.829 132.65,135.96C131.23,137.583 128.998,138.496 125.955,138.699L121.694,138.699C117.941,138.699 116.064,139.967 116.064,142.503L116.064,150.872L125.955,149.959ZM147.106,125.46C147.106,123.127 147.182,121.377 147.335,120.21C147.487,119.043 147.969,117.699 148.78,116.178C150.099,113.439 154.005,112.069 160.497,112.069C166.685,112.069 170.54,113.439 172.062,116.178C172.874,117.699 173.355,119.069 173.508,120.286C173.66,121.503 173.736,123.279 173.736,125.612L173.736,196.066C173.736,199.718 174.04,202.026 174.649,202.99C175.258,203.954 176.602,204.436 178.681,204.436C180.761,204.436 182.156,204.512 182.866,204.664C183.576,204.816 184.489,205.247 185.605,205.957C187.533,207.276 188.496,210.877 188.496,216.761C188.496,223.152 187.533,227.058 185.605,228.478C182.866,230.304 176.526,230.609 166.584,229.391C158.773,228.377 153.65,225.79 151.215,221.631C148.476,216.66 147.106,208.747 147.106,197.892L147.106,125.46ZM196.866,163.198C196.866,160.865 196.942,159.115 197.094,157.948C197.246,156.781 197.677,155.437 198.387,153.915C199.808,151.278 203.764,149.959 210.256,149.959C215.126,149.959 218.575,150.821 220.604,152.546C222.329,153.966 223.242,156.147 223.343,159.089C223.444,160.104 223.495,161.575 223.495,163.502L223.495,216.761C223.495,219.095 223.419,220.844 223.267,222.011C223.115,223.178 222.633,224.522 221.821,226.044C220.503,228.681 216.597,230 210.104,230C203.713,230 199.808,228.63 198.387,225.891C197.677,224.37 197.246,223.051 197.094,221.935C196.942,220.819 196.866,219.044 196.866,216.609L196.866,163.198ZM221.897,134.97C221.137,136.441 219.792,137.481 217.865,138.09C215.937,138.699 213.376,139.003 210.18,139.003C206.985,139.003 204.423,138.699 202.496,138.09C200.568,137.481 199.224,136.416 198.463,134.894C197.703,133.373 197.246,132.028 197.094,130.862C196.942,129.695 196.866,127.945 196.866,125.612C196.866,123.279 196.942,121.529 197.094,120.362C197.246,119.196 197.677,117.902 198.387,116.482C199.808,113.743 203.764,112.373 210.256,112.373C216.648,112.373 220.503,113.743 221.821,116.482C222.633,118.004 223.115,119.348 223.267,120.514C223.419,121.681 223.495,123.431 223.495,125.764C223.495,128.097 223.419,129.847 223.267,131.014C223.115,132.181 222.658,133.499 221.897,134.97ZM235.669,251.76L235.669,162.893C235.669,160.56 235.745,158.836 235.897,157.72C236.049,156.604 236.48,155.336 237.19,153.915C238.611,151.176 242.009,149.807 247.386,149.807C252.762,149.807 256.389,150.492 258.266,151.861C260.143,153.231 261.233,155.234 261.537,157.872C265.392,152.597 271.454,149.959 279.722,149.959C287.99,149.959 295.826,153.865 303.232,161.676C310.637,169.487 314.34,178.567 314.34,188.914C314.34,199.262 310.663,208.341 303.308,216.153C295.953,223.964 288.116,227.87 279.798,227.87C271.479,227.87 265.443,225.536 261.69,220.87L261.69,251.608C261.69,253.941 261.614,255.666 261.461,256.782C261.309,257.898 260.853,259.191 260.092,260.662C259.331,262.133 258.038,263.173 256.212,263.782C254.386,264.39 251.9,264.695 248.755,264.695C245.61,264.695 243.1,264.39 241.223,263.782C239.346,263.173 238.027,262.158 237.266,260.738C236.506,259.318 236.049,258.05 235.897,256.934C235.745,255.818 235.669,254.093 235.669,251.76ZM265.798,180.089C263.465,182.828 262.298,185.82 262.298,189.067C262.298,192.313 263.49,195.28 265.874,197.968C268.258,200.657 271.302,202.001 275.004,202.001C278.707,202.001 281.852,200.682 284.439,198.044C287.026,195.407 288.319,192.414 288.319,189.067C288.319,185.719 287.102,182.701 284.667,180.012C282.232,177.324 279.062,175.98 275.157,175.98C271.251,175.98 268.131,177.35 265.798,180.089ZM324.231,251.76L324.231,162.893C324.231,160.56 324.307,158.836 324.459,157.72C324.612,156.604 325.043,155.336 325.753,153.915C327.173,151.176 330.571,149.807 335.948,149.807C341.325,149.807 344.951,150.492 346.828,151.861C348.705,153.231 349.796,155.234 350.1,157.872C353.955,152.597 360.016,149.959 368.284,149.959C376.552,149.959 384.389,153.865 391.794,161.676C399.2,169.487 402.903,178.567 402.903,188.914C402.903,199.262 399.225,208.341 391.87,216.153C384.515,223.964 376.679,227.87 368.36,227.87C360.042,227.87 354.006,225.536 350.252,220.87L350.252,251.608C350.252,253.941 350.176,255.666 350.024,256.782C349.872,257.898 349.415,259.191 348.654,260.662C347.893,262.133 346.6,263.173 344.774,263.782C342.948,264.39 340.462,264.695 337.318,264.695C334.173,264.695 331.662,264.39 329.785,263.782C327.909,263.173 326.59,262.158 325.829,260.738C325.068,259.318 324.612,258.05 324.459,256.934C324.307,255.818 324.231,254.093 324.231,251.76ZM354.361,180.089C352.027,182.828 350.861,185.82 350.861,189.067C350.861,192.313 352.053,195.28 354.437,197.968C356.821,200.657 359.864,202.001 363.567,202.001C367.27,202.001 370.414,200.682 373.001,198.044C375.588,195.407 376.882,192.414 376.882,189.067C376.882,185.719 375.664,182.701 373.23,180.012C370.795,177.324 367.625,175.98 363.719,175.98C359.813,175.98 356.694,177.35 354.361,180.089ZM490.095,180.317C490.095,186.556 488.548,191.172 485.454,194.164C482.36,197.157 478.936,198.653 475.183,198.653L439.119,198.653C439.119,201.494 440.793,203.878 444.14,205.805C447.488,207.733 450.836,208.696 454.183,208.696C460.067,208.696 464.683,208.088 468.031,206.87L469.705,206.262C472.139,205.146 474.168,204.588 475.791,204.588C479.038,204.588 481.828,206.87 484.161,211.435C485.48,214.174 486.139,216.508 486.139,218.435C486.139,227.464 475.335,231.978 453.727,231.978C446.22,231.978 439.55,230.685 433.717,228.098C427.884,225.511 423.344,222.087 420.098,217.826C413.707,209.609 410.511,200.428 410.511,190.284C410.511,177.502 414.645,167.281 422.913,159.622C431.181,151.963 441.503,148.133 453.879,148.133C467.98,148.133 478.328,153.104 484.922,163.046C488.371,168.321 490.095,174.078 490.095,180.317ZM457.988,184.806C461.843,184.806 463.77,183.183 463.77,179.936C463.77,177.603 462.882,175.726 461.107,174.306C459.332,172.886 456.796,172.176 453.499,172.176C450.202,172.176 446.93,173.52 443.684,176.208C440.438,178.897 438.814,181.762 438.814,184.806L457.988,184.806ZM554.463,150.72C556.39,151.329 557.988,152.368 559.256,153.839C560.524,155.31 561.158,157.669 561.158,160.915C561.158,164.162 560.195,167.712 558.267,171.567C556.34,175.422 553.55,177.35 549.898,177.35C548.072,177.35 546.322,176.944 544.648,176.132C542.974,175.321 540.768,174.915 538.029,174.915C535.29,174.915 532.728,175.879 530.344,177.806C527.96,179.733 526.768,182.067 526.768,184.806L526.768,216.761C526.768,219.095 526.692,220.844 526.54,222.011C526.388,223.178 525.906,224.522 525.094,226.044C523.573,228.681 519.616,230 513.225,230C508.356,230 504.856,229.138 502.725,227.413C501.102,225.993 500.189,223.812 499.986,220.87L499.986,163.046C499.986,160.712 500.062,158.962 500.215,157.796C500.367,156.629 500.798,155.336 501.508,153.915C502.928,151.176 506.885,149.807 513.377,149.807C519.464,149.807 523.268,150.974 524.79,153.307C525.906,154.93 526.464,156.604 526.464,158.328C526.971,157.618 527.706,156.756 528.67,155.742C529.634,154.727 531.688,153.358 534.833,151.633C537.978,149.908 540.742,149.046 543.126,149.046C545.51,149.046 547.514,149.173 549.137,149.426C550.76,149.68 552.535,150.111 554.463,150.72Z" clip-rule="nonzero"/>
            </clipPath>
            <g clip-path="url(#_clip1)">
                <text x="73px" y="230px" style="font-family:'FredokaOne-Regular', 'Fredoka One';font-size:152.169px;fill:url(#_Linear2);">ﬂipper</text>
                <g transform="matrix(1,0,0,1.15129,4.0786,22.5964)">
                    <path d="M318.472,149.668C320.519,148.409 322.38,146.467 323.965,144C326.881,148.538 330.732,151.3 334.951,151.3C336.877,151.3 338.726,150.725 340.444,149.668L340.444,260.393L318.472,260.393L318.472,149.668ZM274.528,260.393L274.528,149.668C276.574,148.409 278.436,146.467 280.021,144C282.937,148.538 286.788,151.3 291.007,151.3C292.933,151.3 294.782,150.725 296.5,149.668L296.596,149.608C298.605,148.348 300.433,146.429 301.993,144C304.909,148.538 308.76,151.3 312.979,151.3C314.905,151.3 316.754,150.725 318.472,149.668L318.472,260.393L274.528,260.393ZM472.278,260.393L472.278,149.668C474.324,148.409 476.186,146.467 477.771,144C480.687,148.538 484.538,151.3 488.757,151.3C490.683,151.3 492.532,150.725 494.25,149.668L494.346,149.608C496.355,148.348 498.183,146.429 499.743,144C502.659,148.538 506.51,151.3 510.729,151.3C512.655,151.3 514.504,150.725 516.222,149.668L516.222,260.393L472.278,260.393ZM626.083,260.393L626.083,149.668C628.13,148.409 629.991,146.467 631.576,144C634.492,148.538 638.343,151.3 642.563,151.3C644.488,151.3 646.337,150.725 648.056,149.668L648.151,149.608C650.16,148.348 651.988,146.429 653.549,144C656.465,148.538 660.316,151.3 664.535,151.3C666.46,151.3 668.309,150.725 670.028,149.668L670.028,260.393L626.083,260.393ZM-76.932,149.608C-74.923,148.348 -73.095,146.429 -71.535,144C-68.619,148.538 -64.768,151.3 -60.549,151.3C-58.623,151.3 -56.774,150.725 -55.056,149.668L-55.056,260.393L-99,260.393L-99,149.668C-96.953,148.409 -95.092,146.467 -93.507,144C-90.591,148.538 -86.74,151.3 -82.521,151.3C-80.595,151.3 -78.746,150.725 -77.028,149.668L-76.932,149.608ZM-55.056,260.393L-55.056,149.668C-53.009,148.409 -51.148,146.467 -49.563,144C-46.647,148.538 -42.796,151.3 -38.576,151.3C-36.651,151.3 -34.802,150.725 -33.083,149.668L-32.988,149.608C-30.979,148.348 -29.151,146.429 -27.59,144C-24.674,148.538 -20.823,151.3 -16.604,151.3C-14.679,151.3 -12.83,150.725 -11.111,149.668L-11.015,149.608C-9.007,148.348 -7.178,146.429 -5.618,144C-2.702,148.538 1.149,151.3 5.368,151.3C7.294,151.3 9.143,150.725 10.861,149.668L10.861,260.393L-55.056,260.393ZM670.028,149.668C672.074,148.409 673.936,146.467 675.521,144C678.437,148.538 682.288,151.3 686.507,151.3C688.433,151.3 690.282,150.725 692,149.668L692,260.393L670.028,260.393L670.028,149.668ZM406.361,260.393L406.361,149.668C408.408,148.409 410.269,146.467 411.854,144C414.77,148.538 418.621,151.3 422.84,151.3C424.766,151.3 426.615,150.725 428.333,149.668L428.429,149.608C430.438,148.348 432.266,146.429 433.826,144C436.742,148.538 440.593,151.3 444.813,151.3C446.738,151.3 448.587,150.725 450.306,149.668L450.401,149.608C452.41,148.348 454.238,146.429 455.799,144C458.715,148.538 462.566,151.3 466.785,151.3C468.71,151.3 470.559,150.725 472.278,149.668L472.278,260.393L406.361,260.393ZM10.861,260.393L10.861,149.668C12.908,148.409 14.769,146.467 16.354,144C19.27,148.538 23.121,151.3 27.34,151.3C29.266,151.3 31.115,150.725 32.833,149.668L32.929,149.608C34.938,148.348 36.766,146.429 38.326,144C41.242,148.538 45.093,151.3 49.312,151.3C51.238,151.3 53.087,150.725 54.806,149.668L54.806,260.393L10.861,260.393ZM76.778,149.668C78.824,148.409 80.686,146.467 82.271,144C85.187,148.538 89.038,151.3 93.257,151.3C95.183,151.3 97.032,150.725 98.75,149.668L98.75,260.393L76.778,260.393L76.778,149.668ZM362.417,260.393L362.417,149.668C364.463,148.409 366.325,146.467 367.91,144C370.826,148.538 374.677,151.3 378.896,151.3C380.821,151.3 382.67,150.725 384.389,149.668L384.485,149.608C386.493,148.348 388.322,146.429 389.882,144C392.798,148.538 396.649,151.3 400.868,151.3C402.794,151.3 404.643,150.725 406.361,149.668L406.361,260.393L362.417,260.393ZM98.75,260.393L98.75,149.668C100.797,148.409 102.658,146.467 104.243,144C107.159,148.538 111.01,151.3 115.229,151.3C117.155,151.3 119.004,150.725 120.722,149.668L120.818,149.608C122.827,148.348 124.655,146.429 126.215,144C129.131,148.538 132.982,151.3 137.201,151.3C139.127,151.3 140.976,150.725 142.694,149.668L142.694,260.393L98.75,260.393ZM142.694,260.393L142.694,149.668C144.741,148.409 146.602,146.467 148.187,144C151.103,148.538 154.954,151.3 159.174,151.3C161.099,151.3 162.948,150.725 164.667,149.668L164.762,149.608C166.771,148.348 168.599,146.429 170.16,144C173.076,148.538 176.927,151.3 181.146,151.3C183.071,151.3 184.92,150.725 186.639,149.668L186.639,260.393L142.694,260.393ZM208.611,149.668C210.658,148.409 212.519,146.467 214.104,144C217.02,148.538 220.871,151.3 225.09,151.3C227.016,151.3 228.865,150.725 230.583,149.668L230.583,260.393L208.611,260.393L208.611,149.668ZM230.583,260.393L230.583,149.668C232.63,148.409 234.491,146.467 236.076,144C238.992,148.538 242.843,151.3 247.063,151.3C248.988,151.3 250.837,150.725 252.556,149.668L252.651,149.608C254.66,148.348 256.488,146.429 258.049,144C260.965,148.538 264.816,151.3 269.035,151.3C270.96,151.3 272.809,150.725 274.528,149.668L274.528,260.393L230.583,260.393ZM54.806,149.668C56.852,148.409 58.714,146.467 60.299,144C63.215,148.538 67.066,151.3 71.285,151.3C73.21,151.3 75.059,150.725 76.778,149.668L76.778,260.393L54.806,260.393L54.806,149.668ZM340.444,149.668C342.491,148.409 344.352,146.467 345.937,144C348.853,148.538 352.704,151.3 356.924,151.3C358.849,151.3 360.698,150.725 362.417,149.668L362.417,260.393L340.444,260.393L340.444,149.668ZM516.222,149.668C518.269,148.409 520.13,146.467 521.715,144C524.631,148.538 528.482,151.3 532.701,151.3C534.627,151.3 536.476,150.725 538.194,149.668L538.194,260.393L516.222,260.393L516.222,149.668ZM538.194,149.668C540.241,148.409 542.102,146.467 543.687,144C546.603,148.538 550.454,151.3 554.674,151.3C556.599,151.3 558.448,150.725 560.167,149.668L560.167,260.393L538.194,260.393L538.194,149.668ZM560.167,149.668C562.213,148.409 564.075,146.467 565.66,144C568.576,148.538 572.427,151.3 576.646,151.3C578.571,151.3 580.42,150.725 582.139,149.668L582.139,260.393L560.167,260.393L560.167,149.668ZM186.639,149.668C188.685,148.409 190.547,146.467 192.132,144C195.048,148.538 198.899,151.3 203.118,151.3C205.044,151.3 206.893,150.725 208.611,149.668L208.611,260.393L186.639,260.393L186.639,149.668ZM604.111,149.668C606.158,148.409 608.019,146.467 609.604,144C612.52,148.538 616.371,151.3 620.59,151.3C622.516,151.3 624.365,150.725 626.083,149.668L626.083,260.393L604.111,260.393L604.111,149.668ZM582.139,149.668C584.185,148.409 586.047,146.467 587.632,144C590.548,148.538 594.399,151.3 598.618,151.3C600.544,151.3 602.393,150.725 604.111,149.668L604.111,260.393L582.139,260.393L582.139,149.668Z" style="fill:white;fill-opacity:0.18;"/>
                </g>
            </g>
            <text x="73px" y="230px" style="font-family:'FredokaOne-Regular', 'Fredoka One';font-size:152.169px;fill:none;stroke:url(#_Linear3);stroke-width:4px;">ﬂipper</text>
        </g>
    </g>
    <defs>
        <linearGradient id="_Linear2" x1="0" y1="0" x2="1" y2="0" gradientUnits="userSpaceOnUse" gradientTransform="matrix(519,-184,54.9589,155.02,73.0786,265.882)"><stop offset="0" style="stop-color:rgb(124,100,255);stop-opacity:1"/><stop offset="1" style="stop-color:rgb(0,173,255);stop-opacity:1"/></linearGradient>
        <linearGradient id="_Linear3" x1="0" y1="0" x2="1" y2="0" gradientUnits="userSpaceOnUse" gradientTransform="matrix(-519,184,-184,-519,592.079,81.8818)"><stop offset="0" style="stop-color:rgb(16,132,187);stop-opacity:1"/><stop offset="1" style="stop-color:rgb(87,69,185);stop-opacity:1"/></linearGradient>
    </defs>
</svg>
