<?xml version="1.0" encoding="UTF-8" standalone="no"?>
<!DOCTYPE svg PUBLIC "-//W3C//DTD SVG 1.1//EN" "http://www.w3.org/Graphics/SVG/1.1/DTD/svg11.dtd">
<svg width="100%" height="100%" viewBox="0 0 318 110" version="1.1" xmlns="http://www.w3.org/2000/svg" xmlns:xlink="http://www.w3.org/1999/xlink" xml:space="preserve" xmlns:serif="http://www.serif.com/" style="fill-rule:evenodd;clip-rule:evenodd;stroke-linejoin:round;stroke-miterlimit:2;">
    <g id="Artboard1" transform="matrix(3.18,0,0,1.1,0,0)">
        <rect x="0" y="0" width="100" height="100" style="fill:none;"/>
        <clipPath id="_clip1">
            <rect x="0" y="0" width="100" height="100"/>
        </clipPath>
        <g clip-path="url(#_clip1)">
            <g transform="matrix(0.205814,0,0,0.595635,-15.4942,-57.6613)">
                <g transform="matrix(152.169,0,0,152.169,73,230)">
                    <path d="M0.348,-0.526C0.394,-0.526 0.421,-0.513 0.429,-0.488C0.433,-0.475 0.435,-0.459 0.435,-0.438C0.435,-0.417 0.433,-0.401 0.429,-0.389C0.424,-0.376 0.417,-0.367 0.408,-0.362C0.394,-0.354 0.374,-0.35 0.347,-0.35L0.283,-0.354L0.283,-0.086C0.283,-0.061 0.28,-0.042 0.274,-0.029C0.267,-0.017 0.258,-0.009 0.245,-0.005C0.232,-0.001 0.215,0.001 0.194,0.001C0.173,0.001 0.157,-0.001 0.145,-0.006C0.132,-0.01 0.123,-0.017 0.118,-0.027C0.113,-0.036 0.11,-0.045 0.109,-0.053C0.108,-0.061 0.107,-0.073 0.107,-0.088L0.107,-0.353L0.071,-0.353C0.054,-0.354 0.041,-0.358 0.034,-0.365C0.021,-0.378 0.015,-0.402 0.015,-0.438C0.015,-0.493 0.035,-0.52 0.074,-0.52L0.107,-0.52L0.107,-0.573C0.107,-0.624 0.125,-0.671 0.162,-0.713C0.199,-0.754 0.252,-0.775 0.321,-0.775C0.336,-0.775 0.348,-0.775 0.356,-0.774C0.363,-0.773 0.372,-0.769 0.382,-0.764C0.4,-0.755 0.409,-0.73 0.409,-0.687C0.409,-0.655 0.403,-0.632 0.392,-0.618C0.383,-0.607 0.368,-0.601 0.348,-0.6L0.32,-0.6C0.295,-0.6 0.283,-0.592 0.283,-0.575L0.283,-0.52L0.348,-0.526ZM0.487,-0.687C0.487,-0.702 0.488,-0.714 0.489,-0.722C0.49,-0.729 0.493,-0.738 0.498,-0.748C0.507,-0.766 0.532,-0.775 0.575,-0.775C0.616,-0.775 0.641,-0.766 0.651,-0.748C0.656,-0.738 0.66,-0.729 0.661,-0.721C0.662,-0.713 0.662,-0.701 0.662,-0.686L0.662,-0.223C0.662,-0.199 0.664,-0.184 0.668,-0.178C0.672,-0.171 0.681,-0.168 0.695,-0.168C0.708,-0.168 0.717,-0.168 0.722,-0.167C0.727,-0.166 0.733,-0.163 0.74,-0.158C0.753,-0.149 0.759,-0.126 0.759,-0.087C0.759,-0.045 0.753,-0.019 0.74,-0.01C0.722,0.002 0.68,0.004 0.615,-0.004C0.564,-0.011 0.53,-0.028 0.514,-0.055C0.496,-0.088 0.487,-0.14 0.487,-0.211L0.487,-0.687Z" style="fill:white;fill-rule:nonzero;"/>
                </g>
                <g transform="matrix(152.169,0,0,152.169,190.779,230)">
                    <path d="M0.04,-0.439C0.04,-0.454 0.041,-0.466 0.042,-0.473C0.043,-0.481 0.045,-0.49 0.05,-0.5C0.059,-0.517 0.085,-0.526 0.128,-0.526C0.16,-0.526 0.183,-0.52 0.196,-0.509C0.207,-0.5 0.213,-0.485 0.214,-0.466C0.215,-0.459 0.215,-0.45 0.215,-0.437L0.215,-0.087C0.215,-0.072 0.215,-0.06 0.214,-0.053C0.213,-0.045 0.209,-0.036 0.204,-0.026C0.195,-0.009 0.17,-0 0.127,-0C0.085,-0 0.059,-0.009 0.05,-0.027C0.045,-0.037 0.043,-0.046 0.042,-0.053C0.041,-0.06 0.04,-0.072 0.04,-0.088L0.04,-0.439ZM0.204,-0.625C0.2,-0.615 0.191,-0.608 0.178,-0.604C0.165,-0.6 0.149,-0.598 0.128,-0.598C0.107,-0.598 0.09,-0.6 0.077,-0.604C0.064,-0.608 0.056,-0.615 0.051,-0.625C0.046,-0.635 0.043,-0.644 0.042,-0.652C0.041,-0.659 0.04,-0.671 0.04,-0.686C0.04,-0.701 0.041,-0.713 0.042,-0.721C0.043,-0.728 0.045,-0.737 0.05,-0.746C0.059,-0.764 0.085,-0.773 0.128,-0.773C0.17,-0.773 0.195,-0.764 0.204,-0.746C0.209,-0.736 0.213,-0.727 0.214,-0.72C0.215,-0.712 0.215,-0.7 0.215,-0.685C0.215,-0.67 0.215,-0.658 0.214,-0.651C0.213,-0.643 0.21,-0.634 0.204,-0.625Z" style="fill:white;fill-rule:nonzero;"/>
                </g>
                <g transform="matrix(152.169,0,0,152.169,229.582,230)">
                    <path d="M0.04,0.143L0.04,-0.441C0.04,-0.456 0.041,-0.468 0.042,-0.475C0.043,-0.482 0.045,-0.491 0.05,-0.5C0.059,-0.518 0.082,-0.527 0.117,-0.527C0.152,-0.527 0.176,-0.523 0.189,-0.514C0.201,-0.504 0.208,-0.491 0.21,-0.474C0.235,-0.509 0.275,-0.526 0.33,-0.526C0.384,-0.526 0.435,-0.5 0.484,-0.449C0.533,-0.398 0.557,-0.338 0.557,-0.27C0.557,-0.202 0.533,-0.142 0.485,-0.091C0.436,-0.04 0.385,-0.014 0.33,-0.014C0.275,-0.014 0.236,-0.029 0.211,-0.06L0.211,0.142C0.211,0.157 0.211,0.169 0.21,0.176C0.209,0.183 0.205,0.192 0.201,0.201C0.196,0.211 0.187,0.218 0.175,0.222C0.163,0.226 0.147,0.228 0.126,0.228C0.105,0.228 0.089,0.226 0.077,0.222C0.064,0.218 0.056,0.211 0.051,0.202C0.046,0.193 0.043,0.184 0.042,0.177C0.041,0.17 0.04,0.158 0.04,0.143ZM0.238,-0.328C0.223,-0.31 0.215,-0.29 0.215,-0.269C0.215,-0.248 0.223,-0.228 0.238,-0.211C0.254,-0.193 0.274,-0.184 0.299,-0.184C0.323,-0.184 0.344,-0.193 0.361,-0.21C0.378,-0.227 0.386,-0.247 0.386,-0.269C0.386,-0.291 0.378,-0.311 0.362,-0.329C0.346,-0.346 0.325,-0.355 0.3,-0.355C0.274,-0.355 0.253,-0.346 0.238,-0.328Z" style="fill:white;fill-rule:nonzero;"/>
                </g>
                <g transform="matrix(152.169,0,0,152.169,318.144,230)">
                    <path d="M0.04,0.143L0.04,-0.441C0.04,-0.456 0.041,-0.468 0.042,-0.475C0.043,-0.482 0.045,-0.491 0.05,-0.5C0.059,-0.518 0.082,-0.527 0.117,-0.527C0.152,-0.527 0.176,-0.523 0.189,-0.514C0.201,-0.504 0.208,-0.491 0.21,-0.474C0.235,-0.509 0.275,-0.526 0.33,-0.526C0.384,-0.526 0.435,-0.5 0.484,-0.449C0.533,-0.398 0.557,-0.338 0.557,-0.27C0.557,-0.202 0.533,-0.142 0.485,-0.091C0.436,-0.04 0.385,-0.014 0.33,-0.014C0.275,-0.014 0.236,-0.029 0.211,-0.06L0.211,0.142C0.211,0.157 0.211,0.169 0.21,0.176C0.209,0.183 0.205,0.192 0.201,0.201C0.196,0.211 0.187,0.218 0.175,0.222C0.163,0.226 0.147,0.228 0.126,0.228C0.105,0.228 0.089,0.226 0.077,0.222C0.064,0.218 0.056,0.211 0.051,0.202C0.046,0.193 0.043,0.184 0.042,0.177C0.041,0.17 0.04,0.158 0.04,0.143ZM0.238,-0.328C0.223,-0.31 0.215,-0.29 0.215,-0.269C0.215,-0.248 0.223,-0.228 0.238,-0.211C0.254,-0.193 0.274,-0.184 0.299,-0.184C0.323,-0.184 0.344,-0.193 0.361,-0.21C0.378,-0.227 0.386,-0.247 0.386,-0.269C0.386,-0.291 0.378,-0.311 0.362,-0.329C0.346,-0.346 0.325,-0.355 0.3,-0.355C0.274,-0.355 0.253,-0.346 0.238,-0.328Z" style="fill:white;fill-rule:nonzero;"/>
                </g>
                <g transform="matrix(152.169,0,0,152.169,406.707,230)">
                    <path d="M0.548,-0.327C0.548,-0.285 0.538,-0.255 0.518,-0.235C0.497,-0.216 0.475,-0.206 0.45,-0.206L0.213,-0.206C0.213,-0.187 0.224,-0.172 0.246,-0.159C0.268,-0.146 0.29,-0.14 0.312,-0.14C0.351,-0.14 0.381,-0.144 0.403,-0.152L0.414,-0.156C0.43,-0.163 0.443,-0.167 0.454,-0.167C0.475,-0.167 0.494,-0.152 0.509,-0.122C0.518,-0.104 0.522,-0.089 0.522,-0.076C0.522,-0.017 0.451,0.013 0.309,0.013C0.26,0.013 0.216,0.004 0.178,-0.013C0.139,-0.029 0.109,-0.052 0.088,-0.08C0.046,-0.134 0.025,-0.194 0.025,-0.261C0.025,-0.345 0.052,-0.412 0.107,-0.463C0.161,-0.513 0.229,-0.538 0.31,-0.538C0.403,-0.538 0.471,-0.505 0.514,-0.44C0.537,-0.405 0.548,-0.368 0.548,-0.327ZM0.337,-0.297C0.362,-0.297 0.375,-0.308 0.375,-0.329C0.375,-0.344 0.369,-0.357 0.358,-0.366C0.346,-0.375 0.329,-0.38 0.308,-0.38C0.286,-0.38 0.264,-0.371 0.243,-0.354C0.222,-0.336 0.211,-0.317 0.211,-0.297L0.337,-0.297Z" style="fill:white;fill-rule:nonzero;"/>
                </g>
                <g transform="matrix(152.169,0,0,152.169,493.9,230)">
                    <path d="M0.398,-0.521C0.411,-0.517 0.421,-0.51 0.43,-0.5C0.438,-0.491 0.442,-0.475 0.442,-0.454C0.442,-0.433 0.436,-0.409 0.423,-0.384C0.41,-0.359 0.392,-0.346 0.368,-0.346C0.356,-0.346 0.344,-0.349 0.334,-0.354C0.323,-0.359 0.308,-0.362 0.29,-0.362C0.272,-0.362 0.255,-0.356 0.239,-0.343C0.224,-0.33 0.216,-0.315 0.216,-0.297L0.216,-0.087C0.216,-0.072 0.216,-0.06 0.215,-0.053C0.214,-0.045 0.21,-0.036 0.205,-0.026C0.195,-0.009 0.169,-0 0.127,-0C0.095,-0 0.072,-0.006 0.058,-0.017C0.047,-0.026 0.041,-0.041 0.04,-0.06L0.04,-0.44C0.04,-0.455 0.041,-0.467 0.042,-0.474C0.043,-0.482 0.045,-0.491 0.05,-0.5C0.059,-0.518 0.085,-0.527 0.128,-0.527C0.168,-0.527 0.193,-0.519 0.203,-0.504C0.21,-0.493 0.214,-0.482 0.214,-0.471C0.217,-0.476 0.222,-0.481 0.229,-0.488C0.235,-0.495 0.248,-0.504 0.269,-0.515C0.29,-0.526 0.308,-0.532 0.324,-0.532C0.339,-0.532 0.352,-0.531 0.363,-0.53C0.374,-0.528 0.385,-0.525 0.398,-0.521Z" style="fill:white;fill-rule:nonzero;"/>
                </g>
            </g>
        </g>
    </g>
</svg>
